# xmcd
#
# Track frame offsets:
#	150
#	15600
#	37228
#	54132
#	72024
#	93139
#	112170
#	129561
#	150571
#	168669
#	202216
#	219454
#
# Disc length: 3176 seconds
#
# Revision: 1
# Processed by: cddbd v1.5.2PL0 Copyright (c) Steve Scherf et al.
# Submitted via: audiograbber 1.83.01
#
DISCID=a70c660c
DTITLE=Various Artist - MRE50
DYEAR=2007
DGENRE=Karaoke
TTITLE0=Vanilla Ice - Ice Ice Baby
TTITLE1=MC Hammer - U Can't Touch This
TTITLE2=Beastie Boys - (You Gotta) Fight For Your Right (To Party)
TTITLE3=Jazzy Jeff and The Fresh Prince - Boom! Shake The Room
TTITLE4=Salt-N-Pepa - Push It
TTITLE5=Coolio ft LV - Gangsta's Paradise
TTITLE6=Run-DMC ft Aerosmith - Walk This Way
TTITLE7=Warren G and Nate Dogg - Regulate
TTITLE8=Apache Indian - Boom Shack A Lak
TTITLE9=Suarhill Gang - Rapper's Delight
TTITLE10=House Of Pain - Jump Around
TTITLE11=Shaggy - Boombastic
EXTD=
EXTT0=
EXTT1=
EXTT2=
EXTT3=
EXTT4=
EXTT5=
EXTT6=
EXTT7=
EXTT8=
EXTT9=
EXTT10=
EXTT11=
PLAYORDER=
